<svg width="1440" height="1024" viewBox="0 0 1440 1024" fill="none" xmlns="http://www.w3.org/2000/svg">
<rect width="1440" height="1024" fill="white"/>
<rect x="75" y="70" width="583" height="478" fill="#D7F3EC"/>
<path d="M296.909 125.091H301.545L305.432 130.205L306.455 131.568L312.25 139.273H307.614L303.795 134.159L302.841 132.864L296.909 125.091ZM313.682 118.545C313.682 122.227 313.017 125.409 311.688 128.091C310.358 130.773 308.534 132.841 306.216 134.295C303.898 135.75 301.25 136.477 298.273 136.477C295.295 136.477 292.648 135.75 290.33 134.295C288.011 132.841 286.188 130.773 284.858 128.091C283.528 125.409 282.864 122.227 282.864 118.545C282.864 114.864 283.528 111.682 284.858 109C286.188 106.318 288.011 104.25 290.33 102.795C292.648 101.341 295.295 100.614 298.273 100.614C301.25 100.614 303.898 101.341 306.216 102.795C308.534 104.25 310.358 106.318 311.688 109C313.017 111.682 313.682 114.864 313.682 118.545ZM309.591 118.545C309.591 115.523 309.085 112.972 308.074 110.892C307.074 108.812 305.716 107.239 304 106.17C302.295 105.102 300.386 104.568 298.273 104.568C296.159 104.568 294.244 105.102 292.528 106.17C290.824 107.239 289.466 108.812 288.455 110.892C287.455 112.972 286.955 115.523 286.955 118.545C286.955 121.568 287.455 124.119 288.455 126.199C289.466 128.278 290.824 129.852 292.528 130.92C294.244 131.989 296.159 132.523 298.273 132.523C300.386 132.523 302.295 131.989 304 130.92C305.716 129.852 307.074 128.278 308.074 126.199C309.085 124.119 309.591 121.568 309.591 118.545ZM336.744 125.295V109.818H340.767V136H336.744V131.568H336.472C335.858 132.898 334.903 134.028 333.608 134.96C332.313 135.881 330.676 136.341 328.699 136.341C327.062 136.341 325.608 135.983 324.335 135.267C323.063 134.54 322.063 133.449 321.335 131.994C320.608 130.528 320.244 128.682 320.244 126.455V109.818H324.267V126.182C324.267 128.091 324.801 129.614 325.869 130.75C326.949 131.886 328.324 132.455 329.994 132.455C330.994 132.455 332.011 132.199 333.045 131.688C334.091 131.176 334.966 130.392 335.67 129.335C336.386 128.278 336.744 126.932 336.744 125.295ZM348.135 136V109.818H352.158V136H348.135ZM350.18 105.455C349.396 105.455 348.72 105.188 348.152 104.653C347.595 104.119 347.317 103.477 347.317 102.727C347.317 101.977 347.595 101.335 348.152 100.801C348.72 100.267 349.396 100 350.18 100C350.964 100 351.635 100.267 352.192 100.801C352.76 101.335 353.044 101.977 353.044 102.727C353.044 103.477 352.76 104.119 352.192 104.653C351.635 105.188 350.964 105.455 350.18 105.455ZM358.776 136V132.932L373.639 113.841V113.568H359.253V109.818H378.821V113.023L364.366 131.977V132.25H379.298V136H358.776ZM389.517 101.091V136H385.494V101.091H389.517ZM407.862 136.545C405.339 136.545 403.163 135.989 401.334 134.875C399.516 133.75 398.112 132.182 397.124 130.17C396.146 128.148 395.658 125.795 395.658 123.114C395.658 120.432 396.146 118.068 397.124 116.023C398.112 113.966 399.487 112.364 401.249 111.216C403.021 110.057 405.089 109.477 407.453 109.477C408.817 109.477 410.163 109.705 411.493 110.159C412.822 110.614 414.033 111.352 415.124 112.375C416.214 113.386 417.084 114.727 417.732 116.398C418.379 118.068 418.703 120.125 418.703 122.568V124.273H398.521V120.795H414.612C414.612 119.318 414.317 118 413.726 116.841C413.146 115.682 412.317 114.767 411.237 114.097C410.169 113.426 408.908 113.091 407.453 113.091C405.851 113.091 404.464 113.489 403.294 114.284C402.135 115.068 401.243 116.091 400.618 117.352C399.993 118.614 399.68 119.966 399.68 121.409V123.727C399.68 125.705 400.021 127.381 400.703 128.756C401.396 130.119 402.357 131.159 403.584 131.875C404.811 132.58 406.237 132.932 407.862 132.932C408.919 132.932 409.874 132.784 410.726 132.489C411.589 132.182 412.334 131.727 412.959 131.125C413.584 130.511 414.067 129.75 414.408 128.841L418.294 129.932C417.885 131.25 417.197 132.409 416.232 133.409C415.266 134.398 414.072 135.17 412.652 135.727C411.232 136.273 409.635 136.545 407.862 136.545ZM436.209 109.818V113.227H422.641V109.818H436.209ZM426.595 103.545H430.618V128.5C430.618 129.636 430.783 130.489 431.112 131.057C431.453 131.614 431.885 131.989 432.408 132.182C432.942 132.364 433.504 132.455 434.095 132.455C434.538 132.455 434.902 132.432 435.186 132.386C435.47 132.33 435.697 132.284 435.868 132.25L436.686 135.864C436.413 135.966 436.033 136.068 435.544 136.17C435.055 136.284 434.436 136.341 433.686 136.341C432.55 136.341 431.436 136.097 430.345 135.608C429.266 135.119 428.368 134.375 427.652 133.375C426.947 132.375 426.595 131.114 426.595 129.591V103.545Z" fill="black"/>
<rect x="790" y="93" width="570" height="410" fill="#D7F3EC"/>
<rect x="702" y="593" width="570" height="410" fill="#D7F3EC"/>
<rect x="66" y="659" width="472.683" height="340" fill="#D7F3EC"/>
<g filter="url(#filter0_d_12_3)">
<rect x="818" y="148" width="235.366" height="73.0921" rx="6.89548" fill="#F5B6B6"/>
</g>
<g filter="url(#filter1_d_12_3)">
<rect x="1094.74" y="148" width="242.261" height="73.0921" rx="6.89548" fill="#F5B6B6"/>
</g>
<g filter="url(#filter2_d_12_3)">
<rect x="1094.74" y="253.731" width="242.261" height="73.0921" rx="6.89548" fill="#F5B6B6"/>
</g>
<g filter="url(#filter3_d_12_3)">
<rect x="818" y="253.731" width="235.366" height="73.0921" rx="6.89548" fill="#F5B6B6"/>
</g>
<path d="M888.039 181.194H885.853C885.723 180.565 885.497 180.013 885.174 179.537C884.857 179.061 884.469 178.661 884.01 178.338C883.558 178.009 883.055 177.762 882.503 177.597C881.951 177.433 881.375 177.351 880.775 177.351C879.682 177.351 878.692 177.627 877.804 178.179C876.923 178.732 876.221 179.546 875.698 180.621C875.18 181.697 874.922 183.016 874.922 184.579C874.922 186.142 875.18 187.462 875.698 188.537C876.221 189.613 876.923 190.427 877.804 190.979C878.692 191.531 879.682 191.808 880.775 191.808C881.375 191.808 881.951 191.725 882.503 191.561C883.055 191.396 883.558 191.152 884.01 190.829C884.469 190.5 884.857 190.097 885.174 189.621C885.497 189.14 885.723 188.587 885.853 187.964H888.039C887.874 188.887 887.575 189.713 887.14 190.441C886.705 191.17 886.164 191.79 885.518 192.301C884.871 192.807 884.146 193.192 883.34 193.456C882.541 193.721 881.686 193.853 880.775 193.853C879.235 193.853 877.866 193.477 876.667 192.724C875.468 191.972 874.525 190.903 873.838 189.516C873.15 188.129 872.806 186.483 872.806 184.579C872.806 182.675 873.15 181.03 873.838 179.643C874.525 178.256 875.468 177.186 876.667 176.434C877.866 175.682 879.235 175.306 880.775 175.306C881.686 175.306 882.541 175.438 883.34 175.702C884.146 175.967 884.871 176.355 885.518 176.866C886.164 177.371 886.705 177.988 887.14 178.717C887.575 179.44 887.874 180.266 888.039 181.194ZM895.274 193.923C894.416 193.923 893.637 193.762 892.938 193.438C892.239 193.109 891.683 192.636 891.272 192.019C890.861 191.396 890.655 190.644 890.655 189.763C890.655 188.987 890.808 188.358 891.113 187.876C891.419 187.388 891.827 187.006 892.339 186.73C892.85 186.454 893.414 186.248 894.031 186.113C894.654 185.972 895.28 185.86 895.909 185.778C896.731 185.672 897.398 185.593 897.91 185.54C898.427 185.481 898.803 185.384 899.038 185.249C899.279 185.114 899.4 184.879 899.4 184.544V184.473C899.4 183.604 899.162 182.928 898.686 182.446C898.215 181.964 897.501 181.723 896.543 181.723C895.55 181.723 894.772 181.94 894.207 182.375C893.643 182.81 893.247 183.274 893.017 183.768L891.043 183.063C891.395 182.24 891.865 181.6 892.453 181.141C893.047 180.677 893.693 180.354 894.392 180.172C895.098 179.983 895.791 179.889 896.473 179.889C896.908 179.889 897.407 179.942 897.971 180.048C898.542 180.148 899.091 180.357 899.62 180.674C900.155 180.991 900.598 181.47 900.951 182.111C901.304 182.751 901.48 183.609 901.48 184.685V193.606H899.4V191.772H899.294C899.153 192.066 898.918 192.381 898.589 192.716C898.259 193.051 897.822 193.336 897.275 193.571C896.729 193.806 896.062 193.923 895.274 193.923ZM895.591 192.054C896.414 192.054 897.108 191.893 897.672 191.57C898.242 191.246 898.671 190.829 898.959 190.318C899.253 189.807 899.4 189.269 899.4 188.705V186.801C899.311 186.906 899.117 187.003 898.818 187.091C898.524 187.174 898.183 187.247 897.795 187.312C897.413 187.371 897.04 187.424 896.676 187.471C896.317 187.512 896.026 187.547 895.803 187.576C895.262 187.647 894.757 187.761 894.287 187.92C893.822 188.073 893.446 188.305 893.158 188.617C892.876 188.922 892.735 189.339 892.735 189.868C892.735 190.591 893.003 191.138 893.537 191.508C894.078 191.872 894.763 192.054 895.591 192.054ZM905.277 193.606V180.066H907.287V182.111H907.428C907.675 181.441 908.122 180.897 908.768 180.48C909.414 180.063 910.143 179.854 910.954 179.854C911.107 179.854 911.298 179.857 911.527 179.863C911.756 179.869 911.93 179.878 912.047 179.889V182.005C911.977 181.987 911.815 181.961 911.562 181.926C911.316 181.885 911.054 181.864 910.778 181.864C910.12 181.864 909.532 182.002 909.015 182.278C908.504 182.549 908.098 182.925 907.798 183.407C907.504 183.883 907.358 184.426 907.358 185.038V193.606H905.277ZM919.214 193.888C918.086 193.888 917.09 193.603 916.226 193.033C915.362 192.457 914.686 191.646 914.198 190.6C913.71 189.548 913.466 188.305 913.466 186.871C913.466 185.449 913.71 184.215 914.198 183.169C914.686 182.123 915.365 181.315 916.234 180.745C917.104 180.174 918.109 179.889 919.249 179.889C920.131 179.889 920.827 180.036 921.339 180.33C921.856 180.618 922.249 180.947 922.52 181.318C922.796 181.682 923.01 181.982 923.163 182.217H923.34V175.552H925.42V193.606H923.41V191.526H923.163C923.01 191.772 922.793 192.084 922.511 192.46C922.229 192.83 921.826 193.162 921.303 193.456C920.78 193.744 920.084 193.888 919.214 193.888ZM919.496 192.019C920.331 192.019 921.036 191.802 921.612 191.367C922.188 190.926 922.626 190.318 922.925 189.542C923.225 188.761 923.375 187.858 923.375 186.836C923.375 185.825 923.228 184.941 922.934 184.182C922.64 183.418 922.205 182.825 921.629 182.402C921.053 181.973 920.342 181.758 919.496 181.758C918.615 181.758 917.88 181.985 917.292 182.437C916.711 182.884 916.273 183.492 915.979 184.262C915.691 185.026 915.547 185.884 915.547 186.836C915.547 187.8 915.694 188.675 915.988 189.463C916.287 190.244 916.728 190.867 917.31 191.332C917.898 191.79 918.626 192.019 919.496 192.019ZM935.796 177.492V175.552H949.336V177.492H943.659V193.606H941.473V177.492H935.796ZM952.428 193.606V180.066H954.508V193.606H952.428ZM953.486 177.809C953.08 177.809 952.73 177.671 952.436 177.395C952.149 177.119 952.005 176.786 952.005 176.399C952.005 176.011 952.149 175.679 952.436 175.402C952.73 175.126 953.08 174.988 953.486 174.988C953.891 174.988 954.238 175.126 954.526 175.402C954.82 175.679 954.966 176.011 954.966 176.399C954.966 176.786 954.82 177.119 954.526 177.395C954.238 177.671 953.891 177.809 953.486 177.809ZM964.207 180.066V181.829H957.19V180.066H964.207ZM959.235 176.822H961.316V189.727C961.316 190.315 961.401 190.756 961.571 191.05C961.748 191.337 961.971 191.531 962.241 191.631C962.517 191.725 962.808 191.772 963.114 191.772C963.343 191.772 963.531 191.761 963.678 191.737C963.825 191.708 963.943 191.684 964.031 191.667L964.454 193.535C964.313 193.588 964.116 193.641 963.863 193.694C963.611 193.753 963.29 193.782 962.902 193.782C962.315 193.782 961.739 193.656 961.175 193.403C960.616 193.151 960.152 192.766 959.782 192.248C959.417 191.731 959.235 191.079 959.235 190.291V176.822ZM969.708 175.552V193.606H967.627V175.552H969.708ZM979.195 193.888C977.891 193.888 976.765 193.6 975.819 193.024C974.879 192.442 974.153 191.631 973.642 190.591C973.136 189.545 972.883 188.329 972.883 186.942C972.883 185.555 973.136 184.332 973.642 183.274C974.153 182.211 974.864 181.382 975.775 180.789C976.692 180.189 977.761 179.889 978.984 179.889C979.689 179.889 980.385 180.007 981.073 180.242C981.76 180.477 982.386 180.859 982.95 181.388C983.515 181.911 983.964 182.605 984.299 183.468C984.634 184.332 984.802 185.396 984.802 186.66V187.541H974.364V185.743H982.686C982.686 184.979 982.533 184.297 982.228 183.698C981.928 183.098 981.499 182.625 980.941 182.278C980.388 181.932 979.736 181.758 978.984 181.758C978.155 181.758 977.438 181.964 976.833 182.375C976.233 182.781 975.772 183.31 975.449 183.962C975.125 184.614 974.964 185.314 974.964 186.06V187.259C974.964 188.282 975.14 189.148 975.493 189.859C975.851 190.565 976.348 191.102 976.983 191.473C977.617 191.837 978.355 192.019 979.195 192.019C979.742 192.019 980.235 191.943 980.676 191.79C981.123 191.631 981.508 191.396 981.831 191.085C982.154 190.767 982.404 190.374 982.58 189.904L984.59 190.468C984.379 191.149 984.023 191.749 983.523 192.266C983.024 192.777 982.407 193.177 981.672 193.465C980.938 193.747 980.112 193.888 979.195 193.888ZM989.483 193.747C989.048 193.747 988.675 193.591 988.363 193.28C988.052 192.968 987.896 192.595 987.896 192.16C987.896 191.725 988.052 191.352 988.363 191.041C988.675 190.729 989.048 190.574 989.483 190.574C989.917 190.574 990.291 190.729 990.602 191.041C990.914 191.352 991.069 191.725 991.069 192.16C991.069 192.448 990.996 192.713 990.849 192.954C990.708 193.195 990.517 193.389 990.276 193.535C990.041 193.676 989.776 193.747 989.483 193.747ZM989.483 183.698C989.048 183.698 988.675 183.542 988.363 183.23C988.052 182.919 987.896 182.546 987.896 182.111C987.896 181.676 988.052 181.303 988.363 180.991C988.675 180.68 989.048 180.524 989.483 180.524C989.917 180.524 990.291 180.68 990.602 180.991C990.914 181.303 991.069 181.676 991.069 182.111C991.069 182.399 990.996 182.663 990.849 182.904C990.708 183.145 990.517 183.339 990.276 183.486C990.041 183.627 989.776 183.698 989.483 183.698Z" fill="black"/>
<path d="M855.4 286.925H853.214C853.085 286.296 852.859 285.744 852.535 285.268C852.218 284.792 851.83 284.392 851.372 284.069C850.919 283.74 850.417 283.493 849.864 283.328C849.312 283.164 848.736 283.081 848.136 283.081C847.043 283.081 846.053 283.358 845.166 283.91C844.284 284.462 843.582 285.276 843.059 286.352C842.542 287.427 842.283 288.747 842.283 290.31C842.283 291.873 842.542 293.192 843.059 294.268C843.582 295.343 844.284 296.157 845.166 296.71C846.053 297.262 847.043 297.538 848.136 297.538C848.736 297.538 849.312 297.456 849.864 297.292C850.417 297.127 850.919 296.883 851.372 296.56C851.83 296.231 852.218 295.828 852.535 295.352C852.859 294.87 853.085 294.318 853.214 293.695H855.4C855.236 294.618 854.936 295.443 854.501 296.172C854.066 296.901 853.526 297.521 852.879 298.032C852.233 298.537 851.507 298.922 850.702 299.187C849.902 299.451 849.047 299.583 848.136 299.583C846.597 299.583 845.227 299.207 844.029 298.455C842.83 297.703 841.886 296.633 841.199 295.246C840.511 293.859 840.167 292.214 840.167 290.31C840.167 288.406 840.511 286.76 841.199 285.373C841.886 283.986 842.83 282.917 844.029 282.165C845.227 281.412 846.597 281.036 848.136 281.036C849.047 281.036 849.902 281.168 850.702 281.433C851.507 281.697 852.233 282.085 852.879 282.597C853.526 283.102 854.066 283.719 854.501 284.448C854.936 285.171 855.236 285.996 855.4 286.925ZM862.635 299.654C861.777 299.654 860.999 299.492 860.299 299.169C859.6 298.84 859.045 298.367 858.633 297.75C858.222 297.127 858.016 296.375 858.016 295.493C858.016 294.717 858.169 294.089 858.475 293.607C858.78 293.119 859.189 292.737 859.7 292.461C860.211 292.185 860.775 291.979 861.392 291.844C862.015 291.703 862.641 291.591 863.27 291.509C864.093 291.403 864.76 291.324 865.271 291.271C865.788 291.212 866.164 291.115 866.399 290.98C866.64 290.845 866.761 290.61 866.761 290.275V290.204C866.761 289.334 866.523 288.658 866.047 288.177C865.577 287.695 864.863 287.454 863.905 287.454C862.912 287.454 862.133 287.671 861.569 288.106C861.005 288.541 860.608 289.005 860.379 289.499L858.404 288.794C858.757 287.971 859.227 287.33 859.814 286.872C860.408 286.408 861.054 286.084 861.754 285.902C862.459 285.714 863.153 285.62 863.834 285.62C864.269 285.62 864.769 285.673 865.333 285.779C865.903 285.879 866.452 286.087 866.981 286.405C867.516 286.722 867.96 287.201 868.312 287.842C868.665 288.482 868.841 289.34 868.841 290.416V299.337H866.761V297.503H866.655C866.514 297.797 866.279 298.111 865.95 298.446C865.621 298.781 865.183 299.066 864.636 299.301C864.09 299.536 863.423 299.654 862.635 299.654ZM862.953 297.785C863.775 297.785 864.469 297.624 865.033 297.3C865.603 296.977 866.032 296.56 866.32 296.049C866.614 295.537 866.761 295 866.761 294.435V292.531C866.673 292.637 866.479 292.734 866.179 292.822C865.885 292.904 865.544 292.978 865.157 293.043C864.775 293.101 864.401 293.154 864.037 293.201C863.678 293.242 863.388 293.278 863.164 293.307C862.624 293.378 862.118 293.492 861.648 293.651C861.184 293.804 860.808 294.036 860.52 294.347C860.238 294.653 860.097 295.07 860.097 295.599C860.097 296.322 860.364 296.868 860.899 297.239C861.439 297.603 862.124 297.785 862.953 297.785ZM872.638 299.337V285.796H874.648V287.842H874.789C875.036 287.172 875.483 286.628 876.129 286.211C876.776 285.794 877.504 285.585 878.315 285.585C878.468 285.585 878.659 285.588 878.888 285.594C879.118 285.6 879.291 285.608 879.409 285.62V287.736C879.338 287.718 879.176 287.692 878.924 287.656C878.677 287.615 878.415 287.595 878.139 287.595C877.481 287.595 876.893 287.733 876.376 288.009C875.865 288.279 875.459 288.656 875.16 289.137C874.866 289.613 874.719 290.157 874.719 290.768V299.337H872.638ZM886.575 299.619C885.447 299.619 884.451 299.334 883.587 298.764C882.723 298.188 882.047 297.377 881.559 296.331C881.072 295.279 880.828 294.036 880.828 292.602C880.828 291.18 881.072 289.945 881.559 288.899C882.047 287.853 882.726 287.045 883.596 286.475C884.466 285.905 885.471 285.62 886.611 285.62C887.492 285.62 888.189 285.767 888.7 286.061C889.217 286.349 889.611 286.678 889.881 287.048C890.157 287.413 890.372 287.712 890.525 287.947H890.701V281.283H892.781V299.337H890.771V297.256H890.525C890.372 297.503 890.154 297.815 889.872 298.191C889.59 298.561 889.188 298.893 888.665 299.187C888.142 299.475 887.445 299.619 886.575 299.619ZM886.857 297.75C887.692 297.75 888.397 297.532 888.973 297.098C889.549 296.657 889.987 296.049 890.287 295.273C890.586 294.491 890.736 293.589 890.736 292.567C890.736 291.556 890.589 290.671 890.295 289.913C890.002 289.149 889.567 288.556 888.991 288.132C888.415 287.703 887.704 287.489 886.857 287.489C885.976 287.489 885.241 287.715 884.654 288.168C884.072 288.614 883.634 289.223 883.34 289.993C883.052 290.756 882.908 291.615 882.908 292.567C882.908 293.53 883.055 294.406 883.349 295.194C883.649 295.975 884.089 296.598 884.671 297.062C885.259 297.521 885.988 297.75 886.857 297.75ZM908.975 299.619C907.847 299.619 906.85 299.334 905.987 298.764C905.123 298.188 904.447 297.377 903.959 296.331C903.471 295.279 903.227 294.036 903.227 292.602C903.227 291.18 903.471 289.945 903.959 288.899C904.447 287.853 905.126 287.045 905.995 286.475C906.865 285.905 907.87 285.62 909.01 285.62C909.892 285.62 910.588 285.767 911.099 286.061C911.617 286.349 912.01 286.678 912.281 287.048C912.557 287.413 912.771 287.712 912.924 287.947H913.1V281.283H915.181V299.337H913.171V297.256H912.924C912.771 297.503 912.554 297.815 912.272 298.191C911.99 298.561 911.587 298.893 911.064 299.187C910.541 299.475 909.845 299.619 908.975 299.619ZM909.257 297.75C910.092 297.75 910.797 297.532 911.373 297.098C911.949 296.657 912.386 296.049 912.686 295.273C912.986 294.491 913.136 293.589 913.136 292.567C913.136 291.556 912.989 290.671 912.695 289.913C912.401 289.149 911.966 288.556 911.39 288.132C910.814 287.703 910.103 287.489 909.257 287.489C908.375 287.489 907.641 287.715 907.053 288.168C906.471 288.614 906.034 289.223 905.74 289.993C905.452 290.756 905.308 291.615 905.308 292.567C905.308 293.53 905.455 294.406 905.749 295.194C906.048 295.975 906.489 296.598 907.071 297.062C907.658 297.521 908.387 297.75 909.257 297.75ZM924.957 299.619C923.652 299.619 922.527 299.331 921.581 298.755C920.64 298.173 919.915 297.362 919.403 296.322C918.898 295.276 918.645 294.059 918.645 292.672C918.645 291.285 918.898 290.063 919.403 289.005C919.915 287.941 920.626 287.113 921.537 286.519C922.453 285.92 923.523 285.62 924.745 285.62C925.451 285.62 926.147 285.738 926.835 285.973C927.522 286.208 928.148 286.59 928.712 287.119C929.276 287.642 929.726 288.335 930.061 289.199C930.396 290.063 930.563 291.127 930.563 292.39V293.272H920.126V291.473H928.448C928.448 290.709 928.295 290.028 927.989 289.428C927.69 288.829 927.261 288.356 926.702 288.009C926.15 287.662 925.498 287.489 924.745 287.489C923.917 287.489 923.2 287.695 922.594 288.106C921.995 288.512 921.534 289.04 921.21 289.693C920.887 290.345 920.726 291.044 920.726 291.791V292.99C920.726 294.012 920.902 294.879 921.255 295.59C921.613 296.295 922.11 296.833 922.744 297.203C923.379 297.568 924.117 297.75 924.957 297.75C925.503 297.75 925.997 297.674 926.438 297.521C926.885 297.362 927.269 297.127 927.593 296.816C927.916 296.498 928.166 296.104 928.342 295.634L930.352 296.198C930.14 296.88 929.785 297.48 929.285 297.997C928.786 298.508 928.169 298.908 927.434 299.196C926.699 299.478 925.874 299.619 924.957 299.619ZM943.319 288.829L941.45 289.358C941.333 289.046 941.159 288.744 940.93 288.45C940.707 288.15 940.401 287.903 940.013 287.709C939.626 287.515 939.129 287.418 938.524 287.418C937.695 287.418 937.004 287.609 936.452 287.991C935.905 288.368 935.632 288.847 935.632 289.428C935.632 289.945 935.82 290.354 936.196 290.654C936.573 290.953 937.16 291.203 937.959 291.403L939.969 291.897C941.18 292.19 942.082 292.64 942.676 293.245C943.269 293.845 943.566 294.618 943.566 295.564C943.566 296.339 943.343 297.033 942.896 297.644C942.455 298.255 941.838 298.737 941.045 299.09C940.251 299.442 939.329 299.619 938.277 299.619C936.896 299.619 935.753 299.319 934.848 298.72C933.943 298.12 933.37 297.245 933.129 296.093L935.103 295.599C935.291 296.328 935.647 296.874 936.17 297.239C936.699 297.603 937.389 297.785 938.242 297.785C939.211 297.785 939.981 297.579 940.551 297.168C941.127 296.751 941.415 296.251 941.415 295.67C941.415 295.199 941.25 294.806 940.921 294.488C940.592 294.165 940.087 293.924 939.405 293.765L937.148 293.237C935.908 292.943 934.998 292.487 934.416 291.87C933.84 291.247 933.552 290.469 933.552 289.534C933.552 288.77 933.766 288.094 934.195 287.507C934.63 286.919 935.221 286.458 935.967 286.123C936.719 285.788 937.572 285.62 938.524 285.62C939.864 285.62 940.915 285.914 941.679 286.502C942.449 287.089 942.996 287.865 943.319 288.829ZM952.198 299.619C950.929 299.619 949.836 299.319 948.919 298.72C948.002 298.12 947.297 297.294 946.803 296.243C946.31 295.191 946.063 293.989 946.063 292.637C946.063 291.262 946.316 290.048 946.821 288.996C947.332 287.939 948.043 287.113 948.954 286.519C949.871 285.92 950.941 285.62 952.163 285.62C953.115 285.62 953.973 285.796 954.737 286.149C955.501 286.502 956.127 286.995 956.615 287.63C957.102 288.265 957.405 289.005 957.523 289.851H955.442C955.284 289.234 954.931 288.688 954.384 288.212C953.844 287.73 953.115 287.489 952.198 287.489C951.387 287.489 950.676 287.701 950.065 288.124C949.46 288.541 948.987 289.132 948.646 289.896C948.311 290.654 948.143 291.544 948.143 292.567C948.143 293.613 948.308 294.524 948.637 295.299C948.972 296.075 949.442 296.677 950.047 297.106C950.659 297.535 951.376 297.75 952.198 297.75C952.739 297.75 953.23 297.656 953.67 297.468C954.111 297.28 954.484 297.009 954.79 296.657C955.096 296.304 955.313 295.881 955.442 295.387H957.523C957.405 296.187 957.114 296.907 956.65 297.547C956.192 298.182 955.583 298.687 954.825 299.063C954.073 299.434 953.197 299.619 952.198 299.619ZM960.564 299.337V285.796H962.574V287.842H962.715C962.962 287.172 963.408 286.628 964.055 286.211C964.701 285.794 965.43 285.585 966.241 285.585C966.394 285.585 966.585 285.588 966.814 285.594C967.043 285.6 967.217 285.608 967.334 285.62V287.736C967.264 287.718 967.102 287.692 966.849 287.656C966.602 287.615 966.341 287.595 966.065 287.595C965.406 287.595 964.819 287.733 964.302 288.009C963.79 288.279 963.385 288.656 963.085 289.137C962.791 289.613 962.644 290.157 962.644 290.768V299.337H960.564ZM969.8 299.337V285.796H971.881V299.337H969.8ZM970.858 283.54C970.452 283.54 970.103 283.402 969.809 283.125C969.521 282.849 969.377 282.517 969.377 282.129C969.377 281.741 969.521 281.409 969.809 281.133C970.103 280.857 970.452 280.719 970.858 280.719C971.263 280.719 971.61 280.857 971.898 281.133C972.192 281.409 972.339 281.741 972.339 282.129C972.339 282.517 972.192 282.849 971.898 283.125C971.61 283.402 971.263 283.54 970.858 283.54ZM975.691 304.414V285.796H977.701V287.947H977.948C978.1 287.712 978.312 287.413 978.582 287.048C978.859 286.678 979.252 286.349 979.764 286.061C980.281 285.767 980.98 285.62 981.862 285.62C983.002 285.62 984.007 285.905 984.876 286.475C985.746 287.045 986.425 287.853 986.913 288.899C987.4 289.945 987.644 291.18 987.644 292.602C987.644 294.036 987.4 295.279 986.913 296.331C986.425 297.377 985.749 298.188 984.885 298.764C984.021 299.334 983.025 299.619 981.897 299.619C981.027 299.619 980.331 299.475 979.808 299.187C979.285 298.893 978.882 298.561 978.6 298.191C978.318 297.815 978.1 297.503 977.948 297.256H977.771V304.414H975.691ZM977.736 292.567C977.736 293.589 977.886 294.491 978.186 295.273C978.485 296.049 978.923 296.657 979.499 297.098C980.075 297.532 980.78 297.75 981.615 297.75C982.485 297.75 983.21 297.521 983.792 297.062C984.38 296.598 984.821 295.975 985.114 295.194C985.414 294.406 985.564 293.53 985.564 292.567C985.564 291.615 985.417 290.756 985.123 289.993C984.835 289.223 984.397 288.614 983.81 288.168C983.228 287.715 982.496 287.489 981.615 287.489C980.768 287.489 980.057 287.703 979.481 288.132C978.906 288.556 978.471 289.149 978.177 289.913C977.883 290.671 977.736 291.556 977.736 292.567ZM996.706 285.796V287.559H989.69V285.796H996.706ZM991.735 282.552H993.815V295.458C993.815 296.046 993.9 296.486 994.071 296.78C994.247 297.068 994.47 297.262 994.741 297.362C995.017 297.456 995.308 297.503 995.613 297.503C995.843 297.503 996.031 297.491 996.178 297.468C996.324 297.438 996.442 297.415 996.53 297.397L996.953 299.266C996.812 299.319 996.615 299.372 996.363 299.425C996.11 299.484 995.79 299.513 995.402 299.513C994.814 299.513 994.238 299.387 993.674 299.134C993.116 298.881 992.651 298.496 992.281 297.979C991.917 297.462 991.735 296.81 991.735 296.022V282.552ZM999.836 299.337V285.796H1001.92V299.337H999.836ZM1000.89 283.54C1000.49 283.54 1000.14 283.402 999.845 283.125C999.557 282.849 999.413 282.517 999.413 282.129C999.413 281.741 999.557 281.409 999.845 281.133C1000.14 280.857 1000.49 280.719 1000.89 280.719C1001.3 280.719 1001.65 280.857 1001.93 281.133C1002.23 281.409 1002.37 281.741 1002.37 282.129C1002.37 282.517 1002.23 282.849 1001.93 283.125C1001.65 283.402 1001.3 283.54 1000.89 283.54ZM1011.23 299.619C1010 299.619 1008.93 299.328 1008.01 298.746C1007.09 298.164 1006.38 297.35 1005.86 296.304C1005.35 295.258 1005.09 294.036 1005.09 292.637C1005.09 291.227 1005.35 289.995 1005.86 288.943C1006.38 287.892 1007.09 287.075 1008.01 286.493C1008.93 285.911 1010 285.62 1011.23 285.62C1012.45 285.62 1013.52 285.911 1014.44 286.493C1015.36 287.075 1016.08 287.892 1016.59 288.943C1017.1 289.995 1017.36 291.227 1017.36 292.637C1017.36 294.036 1017.1 295.258 1016.59 296.304C1016.08 297.35 1015.36 298.164 1014.44 298.746C1013.52 299.328 1012.45 299.619 1011.23 299.619ZM1011.23 297.75C1012.16 297.75 1012.92 297.512 1013.52 297.036C1014.12 296.56 1014.56 295.934 1014.85 295.158C1015.14 294.383 1015.28 293.542 1015.28 292.637C1015.28 291.732 1015.14 290.889 1014.85 290.107C1014.56 289.325 1014.12 288.694 1013.52 288.212C1012.92 287.73 1012.16 287.489 1011.23 287.489C1010.3 287.489 1009.53 287.73 1008.94 288.212C1008.34 288.694 1007.89 289.325 1007.6 290.107C1007.32 290.889 1007.17 291.732 1007.17 292.637C1007.17 293.542 1007.32 294.383 1007.6 295.158C1007.89 295.934 1008.34 296.56 1008.94 297.036C1009.53 297.512 1010.3 297.75 1011.23 297.75ZM1022.62 291.191V299.337H1020.54V285.796H1022.55V287.912H1022.72C1023.04 287.225 1023.52 286.672 1024.17 286.255C1024.82 285.832 1025.65 285.62 1026.67 285.62C1027.59 285.62 1028.39 285.808 1029.08 286.184C1029.77 286.555 1030.3 287.119 1030.68 287.877C1031.07 288.629 1031.26 289.581 1031.26 290.733V299.337H1029.18V290.874C1029.18 289.81 1028.9 288.982 1028.35 288.388C1027.8 287.789 1027.04 287.489 1026.07 287.489C1025.41 287.489 1024.82 287.633 1024.29 287.921C1023.78 288.209 1023.37 288.629 1023.07 289.182C1022.77 289.734 1022.62 290.404 1022.62 291.191ZM1036.58 299.478C1036.14 299.478 1035.77 299.322 1035.46 299.011C1035.14 298.699 1034.99 298.326 1034.99 297.891C1034.99 297.456 1035.14 297.083 1035.46 296.771C1035.77 296.46 1036.14 296.304 1036.58 296.304C1037.01 296.304 1037.38 296.46 1037.7 296.771C1038.01 297.083 1038.16 297.456 1038.16 297.891C1038.16 298.179 1038.09 298.443 1037.94 298.684C1037.8 298.925 1037.61 299.119 1037.37 299.266C1037.13 299.407 1036.87 299.478 1036.58 299.478ZM1036.58 289.428C1036.14 289.428 1035.77 289.273 1035.46 288.961C1035.14 288.65 1034.99 288.276 1034.99 287.842C1034.99 287.407 1035.14 287.034 1035.46 286.722C1035.77 286.411 1036.14 286.255 1036.58 286.255C1037.01 286.255 1037.38 286.411 1037.7 286.722C1038.01 287.034 1038.16 287.407 1038.16 287.842C1038.16 288.13 1038.09 288.394 1037.94 288.635C1037.8 288.876 1037.61 289.07 1037.37 289.217C1037.13 289.358 1036.87 289.428 1036.58 289.428Z" fill="black"/>
<g filter="url(#filter4_d_12_3)">
<rect x="1012.45" y="391.181" width="130.554" height="73.0921" rx="6.89548" fill="#FFE6E6"/>
</g>
<path d="M1048.42 423.246C1048.31 422.353 1047.88 421.66 1047.13 421.166C1046.38 420.672 1045.45 420.426 1044.36 420.426C1043.56 420.426 1042.86 420.555 1042.26 420.813C1041.67 421.072 1041.21 421.428 1040.87 421.88C1040.54 422.333 1040.38 422.847 1040.38 423.423C1040.38 423.905 1040.49 424.319 1040.72 424.666C1040.96 425.007 1041.26 425.292 1041.62 425.521C1041.98 425.744 1042.37 425.929 1042.77 426.076C1043.17 426.217 1043.53 426.332 1043.87 426.42L1045.7 426.914C1046.17 427.037 1046.69 427.207 1047.27 427.425C1047.85 427.642 1048.41 427.939 1048.94 428.315C1049.47 428.685 1049.91 429.161 1050.26 429.743C1050.61 430.325 1050.78 431.039 1050.78 431.885C1050.78 432.861 1050.52 433.742 1050.01 434.53C1049.51 435.317 1048.77 435.943 1047.79 436.408C1046.82 436.872 1045.64 437.104 1044.26 437.104C1042.96 437.104 1041.84 436.895 1040.9 436.478C1039.96 436.061 1039.22 435.479 1038.68 434.733C1038.14 433.986 1037.84 433.119 1037.77 432.132H1040.02C1040.08 432.814 1040.31 433.378 1040.71 433.825C1041.12 434.265 1041.63 434.595 1042.25 434.812C1042.87 435.024 1043.54 435.129 1044.26 435.129C1045.09 435.129 1045.84 434.994 1046.5 434.724C1047.17 434.448 1047.69 434.066 1048.08 433.578C1048.47 433.084 1048.66 432.508 1048.66 431.85C1048.66 431.251 1048.5 430.763 1048.16 430.387C1047.83 430.011 1047.38 429.705 1046.84 429.47C1046.29 429.235 1045.7 429.029 1045.07 428.853L1042.84 428.218C1041.43 427.813 1040.32 427.234 1039.5 426.482C1038.67 425.729 1038.26 424.745 1038.26 423.528C1038.26 422.518 1038.53 421.636 1039.08 420.884C1039.63 420.126 1040.37 419.538 1041.3 419.121C1042.24 418.698 1043.28 418.486 1044.43 418.486C1045.6 418.486 1046.63 418.695 1047.53 419.112C1048.44 419.523 1049.16 420.088 1049.69 420.805C1050.22 421.522 1050.5 422.335 1050.53 423.246H1048.42ZM1062.62 431.251V423.246H1064.7V436.787H1062.62V434.495H1062.48C1062.17 435.182 1061.67 435.767 1061 436.249C1060.33 436.725 1059.49 436.963 1058.46 436.963C1057.62 436.963 1056.86 436.778 1056.21 436.408C1055.55 436.031 1055.03 435.467 1054.66 434.715C1054.28 433.957 1054.09 433.002 1054.09 431.85V423.246H1056.17V431.709C1056.17 432.696 1056.45 433.484 1057 434.072C1057.56 434.659 1058.27 434.953 1059.13 434.953C1059.65 434.953 1060.18 434.821 1060.71 434.556C1061.25 434.292 1061.7 433.886 1062.07 433.34C1062.44 432.793 1062.62 432.097 1062.62 431.251ZM1068.8 436.787V418.733H1070.88V425.397H1071.05C1071.21 425.162 1071.42 424.863 1071.69 424.498C1071.96 424.128 1072.36 423.799 1072.87 423.511C1073.39 423.217 1074.09 423.07 1074.97 423.07C1076.11 423.07 1077.11 423.355 1077.98 423.925C1078.85 424.495 1079.53 425.303 1080.02 426.349C1080.51 427.395 1080.75 428.63 1080.75 430.052C1080.75 431.486 1080.51 432.729 1080.02 433.781C1079.53 434.827 1078.86 435.638 1077.99 436.214C1077.13 436.784 1076.13 437.069 1075 437.069C1074.13 437.069 1073.44 436.925 1072.91 436.637C1072.39 436.343 1071.99 436.011 1071.71 435.641C1071.42 435.265 1071.21 434.953 1071.05 434.706H1070.81V436.787H1068.8ZM1070.84 430.017C1070.84 431.039 1070.99 431.941 1071.29 432.723C1071.59 433.499 1072.03 434.107 1072.61 434.548C1073.18 434.982 1073.89 435.2 1074.72 435.2C1075.59 435.2 1076.32 434.971 1076.9 434.512C1077.49 434.048 1077.93 433.425 1078.22 432.643C1078.52 431.856 1078.67 430.98 1078.67 430.017C1078.67 429.064 1078.52 428.206 1078.23 427.442C1077.94 426.673 1077.5 426.064 1076.92 425.618C1076.33 425.165 1075.6 424.939 1074.72 424.939C1073.87 424.939 1073.16 425.153 1072.59 425.582C1072.01 426.006 1071.58 426.599 1071.28 427.363C1070.99 428.121 1070.84 429.006 1070.84 430.017ZM1083.93 436.787V423.246H1085.94V425.362H1086.12C1086.4 424.639 1086.86 424.078 1087.49 423.678C1088.11 423.273 1088.87 423.07 1089.75 423.07C1090.64 423.07 1091.39 423.273 1091.98 423.678C1092.58 424.078 1093.05 424.639 1093.38 425.362H1093.52C1093.87 424.663 1094.39 424.107 1095.08 423.696C1095.78 423.279 1096.61 423.07 1097.58 423.07C1098.79 423.07 1099.78 423.449 1100.55 424.207C1101.32 424.959 1101.7 426.132 1101.7 427.725V436.787H1099.62V427.725C1099.62 426.725 1099.35 426.011 1098.8 425.582C1098.26 425.153 1097.61 424.939 1096.87 424.939C1095.92 424.939 1095.18 425.227 1094.66 425.803C1094.14 426.373 1093.88 427.096 1093.88 427.971V436.787H1091.76V427.513C1091.76 426.743 1091.51 426.123 1091.01 425.653C1090.51 425.177 1089.87 424.939 1089.08 424.939C1088.54 424.939 1088.03 425.083 1087.56 425.371C1087.1 425.659 1086.72 426.058 1086.44 426.57C1086.15 427.075 1086.01 427.66 1086.01 428.324V436.787H1083.93ZM1105.51 436.787V423.246H1107.59V436.787H1105.51ZM1106.57 420.99C1106.16 420.99 1105.81 420.852 1105.52 420.575C1105.23 420.299 1105.09 419.967 1105.09 419.579C1105.09 419.191 1105.23 418.859 1105.52 418.583C1105.81 418.307 1106.16 418.169 1106.57 418.169C1106.97 418.169 1107.32 418.307 1107.61 418.583C1107.9 418.859 1108.05 419.191 1108.05 419.579C1108.05 419.967 1107.9 420.299 1107.61 420.575C1107.32 420.852 1106.97 420.99 1106.57 420.99ZM1117.29 423.246V425.009H1110.27V423.246H1117.29ZM1112.32 420.002H1114.4V432.908C1114.4 433.496 1114.48 433.936 1114.65 434.23C1114.83 434.518 1115.05 434.712 1115.32 434.812C1115.6 434.906 1115.89 434.953 1116.19 434.953C1116.42 434.953 1116.61 434.941 1116.76 434.918C1116.91 434.888 1117.02 434.865 1117.11 434.847L1117.53 436.716C1117.39 436.769 1117.2 436.822 1116.94 436.875C1116.69 436.934 1116.37 436.963 1115.98 436.963C1115.4 436.963 1114.82 436.837 1114.26 436.584C1113.7 436.331 1113.23 435.946 1112.86 435.429C1112.5 434.912 1112.32 434.26 1112.32 433.472V420.002Z" fill="black"/>
<line x1="275.255" y1="500.57" x2="506.255" y2="637.57" stroke="black"/>
<path d="M790.997 395.071C791.036 394.52 790.621 394.041 790.071 394.002L781.093 393.367C780.542 393.328 780.064 393.743 780.025 394.294C779.986 394.845 780.401 395.323 780.952 395.362L788.932 395.927L788.367 403.907C788.328 404.458 788.743 404.936 789.294 404.975C789.845 405.014 790.323 404.599 790.362 404.048L790.997 395.071ZM510.655 638.755L790.655 395.755L789.345 394.245L509.345 637.245L510.655 638.755Z" fill="black"/>
<path d="M657.588 304.089C657.085 304.316 656.861 304.909 657.089 305.412L660.798 313.612C661.025 314.116 661.618 314.339 662.121 314.111C662.624 313.884 662.848 313.291 662.62 312.788L659.323 305.499L666.612 302.202C667.116 301.975 667.339 301.382 667.111 300.879C666.884 300.376 666.291 300.152 665.788 300.38L657.588 304.089ZM1008.35 436.064L658.353 304.064L657.647 305.936L1007.65 437.936L1008.35 436.064Z" fill="black"/>
<path d="M858.538 584.843C859.004 584.546 859.14 583.927 858.843 583.462L854 575.876C853.703 575.41 853.085 575.274 852.619 575.571C852.154 575.868 852.017 576.486 852.315 576.952L856.619 583.695L849.876 588C849.41 588.297 849.274 588.915 849.571 589.381C849.868 589.846 850.486 589.983 850.952 589.685L858.538 584.843ZM481.784 501.976L857.784 584.976L858.216 583.024L482.216 500.024L481.784 501.976Z" fill="black"/>
<path d="M538.276 797.31C537.895 797.71 537.91 798.343 538.31 798.724L544.828 804.931C545.228 805.312 545.86 805.296 546.241 804.897C546.622 804.497 546.607 803.864 546.207 803.483L540.414 797.966L545.931 792.172C546.312 791.772 546.296 791.14 545.897 790.759C545.497 790.378 544.864 790.393 544.483 790.793L538.276 797.31ZM702.976 793L538.976 797L539.024 799L703.024 795L702.976 793Z" fill="black"/>
<defs>
<filter id="filter0_d_12_3" x="816.161" y="148" width="239.043" height="76.7696" filterUnits="userSpaceOnUse" color-interpolation-filters="sRGB">
<feFlood flood-opacity="0" result="BackgroundImageFix"/>
<feColorMatrix in="SourceAlpha" type="matrix" values="0 0 0 0 0 0 0 0 0 0 0 0 0 0 0 0 0 0 127 0" result="hardAlpha"/>
<feOffset dy="1.8388"/>
<feGaussianBlur stdDeviation="0.919398"/>
<feComposite in2="hardAlpha" operator="out"/>
<feColorMatrix type="matrix" values="0 0 0 0 0 0 0 0 0 0 0 0 0 0 0 0 0 0 0.25 0"/>
<feBlend mode="normal" in2="BackgroundImageFix" result="effect1_dropShadow_12_3"/>
<feBlend mode="normal" in="SourceGraphic" in2="effect1_dropShadow_12_3" result="shape"/>
</filter>
<filter id="filter1_d_12_3" x="1092.9" y="148" width="245.939" height="76.7696" filterUnits="userSpaceOnUse" color-interpolation-filters="sRGB">
<feFlood flood-opacity="0" result="BackgroundImageFix"/>
<feColorMatrix in="SourceAlpha" type="matrix" values="0 0 0 0 0 0 0 0 0 0 0 0 0 0 0 0 0 0 127 0" result="hardAlpha"/>
<feOffset dy="1.8388"/>
<feGaussianBlur stdDeviation="0.919398"/>
<feComposite in2="hardAlpha" operator="out"/>
<feColorMatrix type="matrix" values="0 0 0 0 0 0 0 0 0 0 0 0 0 0 0 0 0 0 0.25 0"/>
<feBlend mode="normal" in2="BackgroundImageFix" result="effect1_dropShadow_12_3"/>
<feBlend mode="normal" in="SourceGraphic" in2="effect1_dropShadow_12_3" result="shape"/>
</filter>
<filter id="filter2_d_12_3" x="1092.9" y="253.731" width="245.939" height="76.7696" filterUnits="userSpaceOnUse" color-interpolation-filters="sRGB">
<feFlood flood-opacity="0" result="BackgroundImageFix"/>
<feColorMatrix in="SourceAlpha" type="matrix" values="0 0 0 0 0 0 0 0 0 0 0 0 0 0 0 0 0 0 127 0" result="hardAlpha"/>
<feOffset dy="1.8388"/>
<feGaussianBlur stdDeviation="0.919398"/>
<feComposite in2="hardAlpha" operator="out"/>
<feColorMatrix type="matrix" values="0 0 0 0 0 0 0 0 0 0 0 0 0 0 0 0 0 0 0.25 0"/>
<feBlend mode="normal" in2="BackgroundImageFix" result="effect1_dropShadow_12_3"/>
<feBlend mode="normal" in="SourceGraphic" in2="effect1_dropShadow_12_3" result="shape"/>
</filter>
<filter id="filter3_d_12_3" x="816.161" y="253.731" width="239.043" height="76.7696" filterUnits="userSpaceOnUse" color-interpolation-filters="sRGB">
<feFlood flood-opacity="0" result="BackgroundImageFix"/>
<feColorMatrix in="SourceAlpha" type="matrix" values="0 0 0 0 0 0 0 0 0 0 0 0 0 0 0 0 0 0 127 0" result="hardAlpha"/>
<feOffset dy="1.8388"/>
<feGaussianBlur stdDeviation="0.919398"/>
<feComposite in2="hardAlpha" operator="out"/>
<feColorMatrix type="matrix" values="0 0 0 0 0 0 0 0 0 0 0 0 0 0 0 0 0 0 0.25 0"/>
<feBlend mode="normal" in2="BackgroundImageFix" result="effect1_dropShadow_12_3"/>
<feBlend mode="normal" in="SourceGraphic" in2="effect1_dropShadow_12_3" result="shape"/>
</filter>
<filter id="filter4_d_12_3" x="1010.61" y="391.181" width="134.232" height="76.7696" filterUnits="userSpaceOnUse" color-interpolation-filters="sRGB">
<feFlood flood-opacity="0" result="BackgroundImageFix"/>
<feColorMatrix in="SourceAlpha" type="matrix" values="0 0 0 0 0 0 0 0 0 0 0 0 0 0 0 0 0 0 127 0" result="hardAlpha"/>
<feOffset dy="1.8388"/>
<feGaussianBlur stdDeviation="0.919398"/>
<feComposite in2="hardAlpha" operator="out"/>
<feColorMatrix type="matrix" values="0 0 0 0 0 0 0 0 0 0 0 0 0 0 0 0 0 0 0.25 0"/>
<feBlend mode="normal" in2="BackgroundImageFix" result="effect1_dropShadow_12_3"/>
<feBlend mode="normal" in="SourceGraphic" in2="effect1_dropShadow_12_3" result="shape"/>
</filter>
</defs>
</svg>
